<svg class="fill-current" data-name="Layer 1" xmlns="http://www.w3.org/2000/svg" viewBox="0 0 148.81 59.11"><path d="M0 17.05l4.19-1.28a6.62 6.62 0 006.4 4.2c2.62 0 4.26-1.35 4.26-2.82 0-1.18-.8-2-2.95-2.69l-5.72-1.79C3.23 11.74 1.09 9.85 1.12 7c0-3.48 3.36-6.43 8-6.43C14 .54 17.57 3.2 18.78 6.3l-4.06 1.19a6.06 6.06 0 00-5.54-3.07C7 4.42 5.57 5.54 5.57 6.85c0 1 .67 1.66 2.14 2.11l5.57 1.79c3.42 1.06 6 2.5 6 6.14 0 3.84-3.58 7-9 7A10.64 10.64 0 010 17.05zm21.57-1.76a8.39 8.39 0 018.67-8.54 8.37 8.37 0 018.64 8.54 8.39 8.39 0 01-8.64 8.55 8.41 8.41 0 01-8.67-8.55zm13.21 0a4.54 4.54 0 10-9.08 0 4.54 4.54 0 109.08 0zm6.31-.03a8.35 8.35 0 018.57-8.51c4.48 0 7.27 2.88 7.91 5.31l-3.94 1.12a4 4 0 00-4-2.68 4.48 4.48 0 00-4.41 4.76 4.53 4.53 0 004.41 4.8 3.94 3.94 0 004-2.59l3.94 1.09c-.64 2.46-3.43 5.28-7.87 5.28a8.39 8.39 0 01-8.61-8.58zM60.25 2.43a2.53 2.53 0 015.06 0 2.53 2.53 0 01-5.06 0zm.36 4.77h4.25v16.19h-4.25zm7.48 8.09c0-4.92 3.53-8.54 8-8.54a6.41 6.41 0 015.22 2.4V7.2h4.26v16.19h-4.26v-2a6.43 6.43 0 01-5.22 2.43c-4.47.02-8-3.63-8-8.53zm13.35 0a4.56 4.56 0 00-4.61-4.73 4.45 4.45 0 00-4.54 4.73 4.48 4.48 0 004.54 4.8 4.6 4.6 0 004.61-4.83zM89.73 0H94v23.39h-4.27zm59.08 19.81v3.3h-49v-3.3zM0 46.05l4.19-1.28a6.62 6.62 0 006.4 4.2c2.62 0 4.26-1.35 4.26-2.82 0-1.18-.8-2-2.95-2.69l-5.72-1.79c-2.95-.93-5.09-2.82-5.06-5.7 0-3.48 3.36-6.43 8-6.43 4.83 0 8.42 2.66 9.63 5.76l-4.06 1.19a6.06 6.06 0 00-5.54-3.08c-2.2 0-3.61 1.12-3.61 2.44 0 1 .67 1.66 2.14 2.11l5.57 1.79c3.42 1.06 6 2.5 6 6.14 0 3.84-3.58 7-9 7A10.64 10.64 0 010 46.05zm38.37-3.13v9.47h-4.23v-8.67c0-2.47-1.12-4-3.45-4s-3.91 1.85-3.91 4.7v8h-4.22V29h4.22v9.22A6.44 6.44 0 0132 35.75c4.22 0 6.37 2.85 6.37 7.17zm3.01 1.37a8.2 8.2 0 018.48-8.54c5.31 0 8.35 3.68 8.35 8.32a7.57 7.57 0 01-.1 1.5H45.54c.28 2.08 1.75 3.68 4.7 3.68a4.1 4.1 0 003.93-2.14L58 48.23a8.32 8.32 0 01-7.81 4.61c-5.19 0-8.81-3.43-8.81-8.55zm12.7-1.37a4 4 0 00-4.26-3.59 4.16 4.16 0 00-4.28 3.59zm24.77 1.37c0 4.9-3.49 8.55-8 8.55a6.51 6.51 0 01-5.25-2.43v8.7h-4.19V36.2h4.22v1.95a6.48 6.48 0 015.25-2.4c4.48 0 7.97 3.62 7.97 8.54zm-4.16 0a4.45 4.45 0 00-4.55-4.73 4.77 4.77 0 000 9.53 4.49 4.49 0 004.55-4.83zm23.16-1.37v9.47h-4.22v-8.67c0-2.47-1.12-4-3.46-4s-3.9 1.85-3.9 4.7v8h-4.22V29h4.22v9.22a6.44 6.44 0 015.22-2.5c4.22.03 6.36 2.88 6.36 7.2zm3.01 1.37a8.2 8.2 0 018.48-8.54c5.31 0 8.35 3.68 8.35 8.32a8.4 8.4 0 01-.09 1.5H105c.29 2.08 1.76 3.68 4.71 3.68a4.12 4.12 0 003.93-2.14l3.81 1.12a8.32 8.32 0 01-7.81 4.61c-5.16 0-8.78-3.43-8.78-8.55zm12.71-1.37a4 4 0 00-4.26-3.59 4.17 4.17 0 00-4.31 3.59zM130.46 36v4c-3.45-.54-5.34 1.06-5.34 5.41v7h-4.23V36.2h4.23v2.4a4.87 4.87 0 015.34-2.6zm18.34-7v23.39h-4.26v-2a6.43 6.43 0 01-5.21 2.43c-4.48 0-8-3.65-8-8.55s3.52-8.54 8-8.54a6.4 6.4 0 015.21 2.4V29zm-4.13 15.23a4.56 4.56 0 00-4.61-4.73 4.45 4.45 0 00-4.54 4.73 4.49 4.49 0 004.54 4.8 4.6 4.6 0 004.61-4.77z"/></svg>