<svg width="325" height="64" viewBox="0 0 325 64" fill="none" xmlns="http://www.w3.org/2000/svg">
<path d="M59.4649 13.9999H64.4779L67.4166 14.6921L70.0096 15.7303L72.4296 17.2877L74.3311 18.845L75.7141 20.2294L77.4427 22.6519L78.8256 25.5936L79.5171 28.5352L79.6899 29.9195V33.8994L78.9985 36.8411L77.9613 39.0906L76.7512 41.1671L75.0226 43.0705L74.1583 43.9357L72.4296 45.4931L70.5282 46.7043L68.7995 47.5695L66.7252 48.2617L63.7865 48.7808H59.4649L56.6991 48.2617L53.9333 47.2235L51.5132 45.8392L49.7845 44.4548L47.3644 42.0323L45.6358 39.4367L44.7715 37.5333L44.08 35.4568L43.7343 33.7264V28.7083L44.4258 25.9396L45.2901 23.8632L46.1544 22.3058L47.5373 20.4024L49.9574 17.9798L52.5504 16.2494L55.1433 15.0382L58.4277 14.173L59.4649 13.9999ZM59.1192 18.672L56.6991 19.3642L54.279 20.5754L52.5504 21.9597L50.9946 23.5171L49.4388 25.9396L48.5745 28.5352L48.4016 29.5735V33.3803L49.0931 35.9759L50.1303 38.0524L52.0318 40.3019L53.7604 41.6862L55.8348 42.8975L58.4277 43.7627L61.1935 44.1088L64.3051 43.9357L66.3794 43.4166L69.1452 42.0323L71.0467 40.4749L72.6025 38.7445L73.9854 36.322L74.8497 33.7264L75.0226 32.5151V30.0926L74.504 27.67L73.6397 25.5936L72.4296 23.6901L70.5282 21.6137L68.7995 20.4024L66.5523 19.3642L63.6136 18.672H59.1192Z" fill="#0A0A0A"/>
<path d="M129.129 15.0382H139.846L143.131 15.5573L145.551 16.2495L148.317 17.6338L150.564 19.3642L152.293 21.2676L154.194 24.3823L155.231 27.151L155.577 28.7083L155.75 30.2657V31.9961L155.404 34.5916L154.54 37.3603L153.157 40.1289L151.947 41.6862L150.737 43.0706L148.49 44.801L145.551 46.3583L142.785 47.2235L139.155 47.7426H129.302L129.129 47.5696V15.0382ZM133.796 19.3642L133.623 19.5372V43.2436H135.871L141.921 42.7245L144.168 42.0323L146.415 40.648L148.49 38.7446L150.045 36.322L150.737 34.4186L150.91 33.5534V29.5735L150.218 26.8049L149.181 24.7284L147.798 22.998L146.415 21.7867L143.995 20.4024L141.402 19.7103L137.945 19.3642H133.796Z" fill="#0A0A0A"/>
<path d="M15.7305 13.9999H20.7435L24.2008 14.6921L27.3123 15.7303L28.0038 16.2494L28.1766 16.9416L28.0038 21.0945L25.2379 20.0563L21.6078 19.0181L20.5706 18.845H16.249L13.3104 19.5372L10.5445 20.9215L8.98878 22.1328L7.43301 23.6901L6.0501 25.9396L5.35864 27.8431L5.01292 29.7465V32.6882L5.53151 35.1107L6.39583 37.1872L7.60587 39.0906L9.16164 40.648L11.5817 42.2053L14.1747 43.2436L16.5948 43.7627H20.7435L23.855 43.0705L27.4852 41.5132H28.0038V46.1852L27.3123 46.8774L24.2008 48.0887L22.1264 48.6078L19.1877 48.9539L16.0762 48.7808L12.9646 48.0887L10.1988 47.0504L7.60587 45.6661L5.70437 44.1088L3.97574 42.3784L2.2471 39.7828L1.03706 37.1872L0.172741 34.0725L-0.00012207 33.0343V28.8813L0.691332 25.9396L1.55565 23.8632L2.76569 21.9597L4.1486 20.2294L5.18578 19.0181L7.08728 17.4607L9.50737 15.9034L11.4089 15.0382L13.6561 14.346L15.7305 13.9999Z" fill="#0A0A0A"/>
<path d="M98.0134 15.0382H102.162V43.2436H112.88V47.5696L112.707 47.7426H98.0134L97.8406 47.5696V15.2112L98.0134 15.0382Z" fill="#0A0A0A"/>
<path d="M202.25 13.9999H206.572L209.337 14.5191L212.276 15.5573L214.869 17.1146L216.771 18.672L218.845 20.7485L220.055 22.4789L221.438 25.2475L222.129 28.0161L222.302 29.4004V33.2073L221.784 35.9759L220.919 38.3985L219.363 41.1671L217.116 43.7627L216.771 44.2818L218.672 46.3583L221.092 48.9539L221.265 49.2999L215.388 49.473L213.486 47.5695L213.14 47.0504L211.066 47.5695L207.955 48.4347L205.707 48.7808H202.077L199.138 48.2617L196.373 47.2235L193.953 45.8392L191.532 43.9357L190.322 42.7245L188.594 40.3019L187.384 37.8794L186.519 34.9377L186.174 32.5151V29.2274L186.692 26.4588L187.729 23.8632L189.285 21.4406L191.36 19.0181L193.434 17.2877L195.681 15.9034L198.101 14.8651L200.867 14.173L202.25 13.9999ZM202.769 18.499L200.176 19.0181L198.101 19.8833L196.027 21.0945L194.298 22.6519L192.743 24.7284L191.532 27.324L191.014 29.5735V32.8612L191.705 35.6298L192.915 38.0524L194.298 39.7828L195.508 40.9941L197.756 42.5514L200.349 43.5896L203.114 44.1088H205.362L208.127 43.5896L209.337 43.0705L208.992 42.3784L206.399 39.6097L205.189 38.2254L202.596 35.4568V35.1107H207.955L210.029 37.1872L211.239 38.5715L213.14 40.648L213.832 40.3019L215.215 38.7445L216.598 36.495L217.289 34.5916L217.635 32.5151V30.6117L217.289 28.3622L216.425 25.7666L214.869 23.3441L212.968 21.4406L210.547 19.8833L207.609 18.845L205.362 18.499H202.769Z" fill="#0B7BFA"/>
<path d="M172.518 15.0382H176.666V47.7426H172.518V15.0382Z" fill="#0B7BFA"/>
<path d="M274.111 0H282.439L286.195 0.327365L290.768 0.982095L295.994 2.12787L300.893 3.7647L303.669 5.07416L306.608 6.87466L308.731 8.51149L311.018 10.4757L312.977 12.4399L314.774 14.7314L317.06 17.8414L319.346 21.2787L321.306 24.5524L322.612 27.1713L323.592 30.1176L324.409 33.8823L324.899 38.9564V42.5574L324.409 46.4858L323.592 48.9411L322.122 52.051L320.489 54.5063L319.183 56.1431L317.223 58.271L315.59 59.9078L313.304 61.3809L311.671 62.1993L309.221 63.0177L306.282 63.6725L303.016 63.9998H300.566L299.26 63.6725L297.463 62.5267L295.177 60.5625L293.544 59.0894L291.421 56.9615L290.115 55.161L289.298 54.6699H287.665L286.032 54.9973H283.746L282.766 54.5063L281.133 53.0331L280.153 51.8873L279.01 49.4321L277.703 46.1585L276.56 44.0306L275.744 43.2122L273.131 41.9027L269.701 40.7569L265.455 39.9385L262.516 39.6112H258.107L255.984 39.7748H252.391L249.941 39.2838L247.329 38.3017L244.716 36.8286L242.429 34.8644L241.123 33.3912L239.817 31.0997L239.327 29.2992L239 25.6981V23.5703L239.327 21.2787L240.143 18.8235L241.613 16.2046L243.083 14.4041L244.552 12.7672L247.329 9.98463L249.941 8.02044L253.044 6.05625L256.637 4.25574L260.393 2.7826L263.496 1.80051L267.742 0.818412L271.988 0.163682L274.111 0Z" fill="#D8F0FF"/>
<path d="M274.11 0H282.439L286.195 0.327365L290.768 0.982095L295.993 2.12787L300.893 3.7647L303.669 5.07416L306.608 6.87466L308.731 8.51149L311.017 10.4757L312.977 12.4399L314.773 14.7314L317.06 17.8414L319.346 21.2787L321.306 24.5524L322.612 27.1713L323.592 30.1176L324.409 33.8823L324.735 36.9922V39.9385L323.755 39.6112L320.979 37.9743L319.183 36.9922L317.06 35.8465L315.263 34.8644L311.507 32.7365L306.772 30.1176L303.015 27.9897L299.423 26.0255L295.503 24.3887L290.931 22.4245L286.848 20.624L281.459 18.3324L270.844 13.7493L267.088 12.1125L262.842 10.312L260.556 9.3299L259.903 9.16622L250.431 8.67517L249.615 8.51149L250.431 7.69308L253.371 5.89257L257.78 3.7647L261.863 2.29155L266.108 1.14578L270.681 0.327365L274.11 0Z" fill="#54BFFF"/>
<path d="M262.516 9.98448L259.903 9.00238L259.576 39.4473L261.209 38.9563L267.088 36.9921L286.685 30.2811L290.931 28.808L297.79 26.5164L299.423 26.0254V25.8617L295.504 24.2248L291.258 22.4243L288.645 21.2786L276.887 16.2044L271.171 13.7492L262.516 9.98448Z" fill="#BAE5FF"/>
<path d="M250.431 8.51146L249.452 8.34778L247.329 9.9846L244.552 12.7672L243.083 14.404L241.613 16.2045L240.143 18.8235L239.327 21.2787L239 23.5702V25.6981L239.327 29.2991L239.817 31.0996L241.123 33.3912L242.429 34.8643L244.716 36.8285L247.329 38.3017L249.941 39.2838L252.391 39.7748H255.984L259.576 39.4474L259.903 9.00251L250.431 8.51146Z" fill="#8BD7FF"/>
<path d="M297.3 2.78253L298.606 2.94621L301.219 3.92831L303.832 5.23777L306.119 6.54723L308.731 8.51142L311.018 10.4756L312.977 12.4398L314.774 14.7313L317.06 17.8413L319.346 21.2786L321.306 24.5523L322.612 27.1712L323.592 30.1175L324.409 33.8822L324.735 36.9922V39.9384L323.756 39.6111L320.979 37.9743L319.183 36.9922L317.06 35.8464L315.264 34.8643L311.508 32.7364L306.772 30.1175L303.016 27.9896L299.423 26.0254L299.096 24.3886L298.77 20.2966L298.117 11.4577L297.463 4.9104V3.43726L297.3 2.78253Z" fill="#0B7BFA"/>
<path d="M325 39.7552L299.393 26.0383L294.197 41.739L293.544 42.3937L292.401 44.6853L291.421 47.3042L291.258 48.6136H290.931L290.768 49.4321L290.278 50.5778L289.135 53.6878L288.972 54.5062L290.115 55.1609L291.421 56.9615L294.197 59.7441H294.851L294.687 57.9435L294.851 58.4346L295.667 59.7441L296.32 60.0714L324.736 43.2121L325 39.7552Z" fill="#BAE5FF"/>
<path d="M310.038 20.2967L310.691 20.7877H317.713L318.693 20.9514L318.856 20.4604L321.306 24.5524L322.612 27.1714L323.592 30.1176L324.409 33.8823L324.735 36.9923L325 40.2302L323.756 39.6112L320.979 37.9744L319.183 36.9923L317.06 35.8465L315.264 34.8644L311.508 32.7366L306.772 30.1176L303.016 27.9898L299.423 26.0256L299.586 25.6982L300.566 25.3708L301.219 24.8798L304.649 23.0793L307.262 21.7698L310.038 20.2967Z" fill="#54BFFF"/>
<path d="M310.038 20.2967L310.691 20.7877H317.713L318.693 20.9514L318.856 20.4604L321.306 24.5524L322.612 27.1714L322.776 27.9898L322.123 27.335V27.0077L304.297 25.3194L303.807 25.6468H302.827L302.5 26.3015L301.52 25.9742L299.423 26.0256L299.586 25.6982L300.566 25.3708L301.219 24.8798L304.649 23.0793L307.262 21.7698L310.038 20.2967Z" fill="#2DA0FF"/>
<path d="M268.558 0.654602H270.028L269.865 1.30933L268.068 2.78247L266.925 3.92825L264.639 5.56508L262.842 7.03822L261.863 7.85663H261.536L261.373 8.34768L260.393 9.16609L250.431 8.67504L249.615 8.51136L250.431 7.69295L253.371 5.89244L257.78 3.76457L261.863 2.29143L266.109 1.14565L268.558 0.654602Z" fill="#0B7BFA"/>
<path d="M250.431 8.67512L260.393 9.16617L261.863 2.2915L257.78 3.76465L253.371 5.89252L250.431 7.69303L249.615 8.51144L250.431 8.67512Z" fill="#2DA0FF"/>
<path d="M254.351 5.40143L255.167 5.72879L257.617 7.36562L259.413 8.5114L259.903 9.00244H256.963L250.431 8.67508L249.615 8.5114L250.431 7.69298L253.371 5.89248L254.351 5.40143Z" fill="#54BFFF"/>
<path d="M324.71 43.2123H324.056L318.994 44.8492L311.513 47.4681L305.96 49.2686L303.184 50.087L299.592 51.3965L297.958 51.8875L288.997 54.3957L294.445 59.908L295.099 60.5627L297.385 62.5269L299.181 63.6727L300.488 64H303.674L306.94 63.6727L309.88 63.0179L312.329 62.1995L313.962 61.3811L316.249 59.908L317.718 58.4348L319.32 55.9796L320.953 53.8517L322.423 51.3965L323.893 48.1228L324.546 45.6676L324.71 43.2123Z" fill="#D8F0FF"/>
</svg>
